<svg width="96" height="96" xmlns="http://www.w3.org/2000/svg" xmlns:xlink="http://www.w3.org/1999/xlink" overflow="hidden"><defs><clipPath id="clip0"><rect x="592" y="312" width="96" height="96"/></clipPath></defs><g clip-path="url(#clip0)" transform="translate(-592 -312)"><path d="M635 340C635 337.2 637.2 335 640 335 642.8 335 645 337.2 645 340 645 340.1 645 340.2 645 340.3 643.4 340.1 641.7 340 640 340 638.3 340 636.7 340.1 635 340.3 635 340.2 635 340.1 635 340ZM648.9 341.1C648.9 340.7 649 340.4 649 340 649 335 645 331 640 331 635 331 631 335 631 340 631 340.4 631 340.7 631.1 341.1 614.4 345.1 602 360.1 602 378L678 378C678 360.1 665.6 345.1 648.9 341.1Z"/><path d="M600 382 600 384C600 386.2 601.8 388 604 388L676 388C678.2 388 680 386.2 680 384L680 382 600 382Z"/></g></svg>